<?xml version="1.0" encoding="utf-8"?>
<svg width="16" height="16" viewBox="0 0 16 16" fill="none" xmlns="http://www.w3.org/2000/svg">
<path opacity="0.5" fill-rule="evenodd" clip-rule="evenodd" d="M12.8 2.99999C11.7 1.89999 10.2 1.09999 8.6 0.999985C7 0.899985 5.4 1.29999 4.1 2.19999C2.7 3.09999 1.8 4.39999 1.3 5.99999C0.799997 7.49999 0.899997 9.19999 1.5 10.7C2.1 12.2 3.2 13.4 4.6 14.2C6 15 7.6 15.2 9.2 14.9C10.8 14.6 12.2 13.7 13.2 12.5C14.2 11.2 14.8 9.69999 14.8 8.09999C14.8 6.09999 14.1 4.39999 12.8 2.99999ZM7.89999 7.5L10.3 5L11 5.7L8.59999 8.2L11 10.7L10.3 11.4L7.89999 8.9L5.49999 11.4L4.79999 10.7L7.19999 8.2L4.79999 5.7L5.49999 5L7.89999 7.5Z" fill="#A1260D"/>
</svg>
