<?xml version="1.0" encoding="utf-8"?>
<svg width="16" height="16" viewBox="0 0 16 16" fill="none" xmlns="http://www.w3.org/2000/svg">
<path opacity="0.5" fill-rule="evenodd" clip-rule="evenodd" d="M8.6 0.999985C10.2 1.09999 11.7 1.89999 12.8 2.99999C14.1 4.39999 14.8 6.09999 14.8 8.09999C14.8 8.71873 14.7103 9.32252 14.5424 9.90558L10.009 6.73224L11 5.7L10.3 5L7.89999 7.5L5.49999 5L4.79999 5.7L7.19999 8.2L4.79999 10.7L5.49999 11.4L7.89999 8.9L9.62843 10.7005V14.8042C9.48735 14.8409 9.34449 14.8729 9.2 14.9C7.6 15.2 6 15 4.6 14.2C3.2 13.4 2.1 12.2 1.5 10.7C0.899997 9.19999 0.799997 7.49999 1.3 5.99999C1.8 4.39999 2.7 3.09999 4.1 2.19999C5.4 1.29999 7 0.899985 8.6 0.999985ZM9.62843 9.2713V7.1287L8.59999 8.2L9.62843 9.2713Z" fill="#A1260D"/>
<path fill-rule="evenodd" clip-rule="evenodd" d="M10.8267 8.75732V16L16 12.3787L10.8267 8.75732Z" fill="#424242"/>
</svg>
