<?xml version="1.0" encoding="utf-8"?>
<svg width="16" height="16" viewBox="0 0 16 16" fill="none" xmlns="http://www.w3.org/2000/svg">
<path fill-rule="evenodd" clip-rule="evenodd" d="M12.76 3.04996C11.6436 1.90518 10.1595 1.19039 8.56837 1.03128C6.97728 0.872174 5.38101 1.27893 4.06001 2.17997C2.72797 3.08681 1.7496 4.42537 1.29002 5.96988C0.829462 7.52043 0.910591 9.18167 1.52003 10.68C2.12676 12.1706 3.22861 13.4067 4.64003 14.18C6.04843 14.9369 7.67726 15.1772 9.24428 14.8594C10.8113 14.5416 12.2178 13.6857 13.22 12.4399C14.3098 11.0913 14.8651 9.38899 14.7803 7.65726C14.6955 5.92553 13.9763 4.28556 12.76 3.04996ZM7.38298 11.9423L12.2305 6.16678L11.4646 5.52389L6.99495 10.8491L4.1407 7.53745L3.38322 8.1903L6.62126 11.9473L7.38298 11.9423Z" fill="#388A34"/>
</svg>
