<?xml version="1.0" encoding="utf-8"?>
<svg width="16" height="16" viewBox="0 0 16 16" fill="none" xmlns="http://www.w3.org/2000/svg">
<path opacity="0.5" fill-rule="evenodd" clip-rule="evenodd" d="M8.56837 1.03128C10.1595 1.19039 11.6436 1.90518 12.76 3.04996C13.9763 4.28556 14.6955 5.92553 14.7803 7.65726C14.8172 8.41168 14.7327 9.16052 14.5354 9.87695L11.122 7.48755L12.2305 6.16678L11.4646 5.52389L10.2996 6.91188L9.62345 6.43859V7.71745L6.99495 10.8491L4.1407 7.53745L3.38322 8.1903L6.62126 11.9473L7.38298 11.9423L9.62345 9.27292V14.7712C9.49821 14.8041 9.37178 14.8336 9.24428 14.8594C7.67726 15.1772 6.04843 14.9369 4.64003 14.18C3.22861 13.4067 2.12676 12.1706 1.52003 10.68C0.910591 9.18167 0.829462 7.52043 1.29002 5.96988C1.7496 4.42537 2.72797 3.08681 4.06001 2.17997C5.38101 1.27893 6.97728 0.872174 8.56837 1.03128Z" fill="#89D185"/>
<path fill-rule="evenodd" clip-rule="evenodd" d="M10.8267 8.75732V16L16 12.3787L10.8267 8.75732Z" fill="#C5C5C5"/>
</svg>
