<?xml version="1.0" encoding="utf-8"?>
<svg width="16" height="16" viewBox="0 0 16 16" fill="none" xmlns="http://www.w3.org/2000/svg">
<path fill-rule="evenodd" clip-rule="evenodd" d="M12.8 2.99999C11.7 1.89999 10.2 1.09999 8.6 0.999985C7 0.899985 5.4 1.29999 4.1 2.19999C2.7 3.09999 1.8 4.39999 1.3 5.99999C0.799997 7.49999 0.899997 9.19999 1.5 10.7C2.1 12.2 3.2 13.4 4.6 14.2C6 15 7.6 15.2 9.2 14.9C9.34449 14.8729 9.48735 14.8409 9.62843 14.8042V13.7541C9.45451 13.8102 9.27819 13.8589 9.1 13.9C7.8 14.2 6.4 14 5.2 13.3C4 12.6 3.1 11.6 2.5 10.3C1.9 8.99999 1.9 7.59999 2.3 6.29999C2.7 4.89999 3.5 3.79999 4.6 2.99999C5.7 2.19999 7.1 1.89999 8.4 1.99999C9.8 2.09999 11 2.69999 12 3.69999C13.1 4.79999 13.7 6.39999 13.7 7.99999C13.7309 8.43274 13.7045 8.85594 13.6296 9.26664L14.5424 9.90558C14.7103 9.32252 14.8 8.71873 14.8 8.09999C14.8 6.09999 14.1 4.39999 12.8 2.99999ZM10.009 6.73224L11 5.7L10.3 5L7.89999 7.5L5.49999 5L4.79999 5.7L7.19999 8.2L4.79999 10.7L5.49999 11.4L7.89999 8.9L9.62843 10.7005V9.2713L8.59999 8.2L9.62843 7.1287V6.46582L10.009 6.73224Z" fill="#A1260D"/>
<path fill-rule="evenodd" clip-rule="evenodd" d="M10.8267 8.75733V16L16 12.3787L10.8267 8.75733Z" fill="#424242"/>
</svg>
