<?xml version="1.0" encoding="utf-8"?>
<svg width="16" height="16" viewBox="0 0 16 16" fill="none" xmlns="http://www.w3.org/2000/svg">
<path fill-rule="evenodd" clip-rule="evenodd" d="M8.06068 3.85356L5.91423 5.99999L5.20713 5.29289L6.50002 4H3.50009C3.10227 4 2.72074 4.15804 2.43943 4.43934C2.15813 4.72065 2.00009 5.10218 2.00009 5.5C2.00009 5.89783 2.15813 6.27936 2.43943 6.56066C2.72074 6.84197 3.10227 7 3.50009 7H4.00009V8H3.50009C2.83705 8 2.20117 7.73661 1.73232 7.26777C1.26348 6.79893 1.00009 6.16304 1.00009 5.5C1.00009 4.83696 1.26348 4.20108 1.73232 3.73223C2.20117 3.26339 2.83705 3 3.50009 3H6.50002L6.00006 2.50004L5.20713 1.70711L5.91424 1L8.06068 3.14645V3.85356ZM5.00008 6.50004L5.91428 7.41425L6.00006 7.32847V14H14.0001V6.1L14 6.09998V7H10V3L11.0001 3L11.0001 6H13.9033L11.0001 3H9.06073V2.73228L8.32845 2H11.2001L11.5001 2.1L14.9001 5.6L15.0001 6V14.5L14.5001 15H5.50006L5.00006 14.5V9.00004H5.00008V6.50004Z" fill="#C5C5C5"/>
</svg>
