<?xml version="1.0" encoding="utf-8"?>
<svg width="16" height="16" viewBox="0 0 16 16" fill="none" xmlns="http://www.w3.org/2000/svg">
<path fill-rule="evenodd" clip-rule="evenodd" d="M8.06065 3.85356L5.9142 5.99999L5.2071 5.29289L6.49999 4H3.50006C3.10224 4 2.72071 4.15804 2.4394 4.43934C2.1581 4.72065 2.00006 5.10218 2.00006 5.5C2.00006 5.89783 2.1581 6.27936 2.4394 6.56066C2.72071 6.84197 3.10224 7 3.50006 7H4.00006V8H3.50006C2.83702 8 2.20114 7.73661 1.73229 7.26777C1.26345 6.79893 1.00006 6.16304 1.00006 5.5C1.00006 4.83696 1.26345 4.20108 1.73229 3.73223C2.20114 3.26339 2.83702 3 3.50006 3H6.49999L6.00003 2.50004L5.2071 1.70711L5.91421 1L8.06065 3.14645V3.85356ZM5.00004 6.50004L5.91425 7.41425L6.00003 7.32847V14H14V6.1L14 6.09998V7H10V3L11 3L11 6H13.9033L11 3H9.0607V2.73228L8.32842 2H11.2L11.5 2.1L14.9 5.6L15 6V14.5L14.5 15H5.50003L5.00003 14.5V9.00004H5.00004V6.50004Z" fill="#424242"/>
</svg>
