<?xml version="1.0" encoding="utf-8"?>
<svg width="16" height="16" viewBox="0 0 16 16" fill="none" xmlns="http://www.w3.org/2000/svg">
<path fill-rule="evenodd" clip-rule="evenodd" d="M8.56837 1.03128C10.1595 1.19039 11.6436 1.90518 12.76 3.04996C13.9763 4.28556 14.6955 5.92553 14.7803 7.65726C14.8651 9.38899 14.3098 11.0913 13.22 12.4399C12.2178 13.6857 10.8113 14.5416 9.24428 14.8594C7.67726 15.1772 6.04843 14.9369 4.64003 14.18C3.22861 13.4067 2.12676 12.1706 1.52003 10.68C0.910591 9.18167 0.829462 7.52043 1.29002 5.96988C1.7496 4.42537 2.72797 3.08681 4.06001 2.17997C5.38101 1.27893 6.97728 0.872174 8.56837 1.03128ZM9.04005 13.8799C10.3829 13.6076 11.5887 12.8756 12.45 11.81C13.3826 10.6509 13.8571 9.18962 13.7834 7.70377C13.7097 6.21792 13.0928 4.81094 12.05 3.74991C11.0949 2.77492 9.82747 2.16667 8.46931 2.03141C7.11116 1.89614 5.74868 2.24247 4.62001 3.00992C3.77045 3.59532 3.08443 4.38793 2.62691 5.31266C2.16938 6.23738 1.95553 7.2636 2.0056 8.2941C2.05567 9.3246 2.36802 10.3253 2.91304 11.2013C3.45806 12.0773 4.21769 12.7997 5.12001 13.3C6.31834 13.9467 7.70579 14.1519 9.04005 13.8799ZM7.38297 11.9423L12.2305 6.16677L11.4646 5.52388L6.99495 10.8491L4.1407 7.53744L3.38322 8.19029L6.62125 11.9473L7.38297 11.9423Z" fill="#89D185"/>
</svg>
