<?xml version="1.0" encoding="utf-8"?>
<svg width="16" height="16" viewBox="0 0 16 16" fill="none" xmlns="http://www.w3.org/2000/svg">
<path opacity="0.5" fill-rule="evenodd" clip-rule="evenodd" d="M12.76 3.04996C11.6436 1.90518 10.1595 1.19039 8.56837 1.03128C6.97728 0.872174 5.38101 1.27893 4.06001 2.17997C2.72797 3.08681 1.7496 4.42537 1.29002 5.96988C0.829462 7.52043 0.910591 9.18167 1.52003 10.68C2.12676 12.1706 3.22861 13.4067 4.64003 14.18C6.04843 14.9369 7.67726 15.1772 9.24428 14.8594C9.37178 14.8336 9.49821 14.8041 9.62345 14.7712V13.7302C9.4324 13.7898 9.23771 13.8398 9.04005 13.8799C7.70579 14.1519 6.31834 13.9467 5.12001 13.3C4.21769 12.7997 3.45806 12.0773 2.91304 11.2013C2.36802 10.3253 2.05567 9.3246 2.0056 8.2941C1.95553 7.2636 2.16938 6.23738 2.62691 5.31266C3.08443 4.38793 3.77045 3.59532 4.62001 3.00992C5.74868 2.24247 7.11116 1.89614 8.46931 2.03141C9.82747 2.16667 11.0949 2.77492 12.05 3.74991C13.0928 4.81094 13.7097 6.21792 13.7834 7.70377C13.8096 8.23087 13.7667 8.75488 13.6589 9.26341L14.5354 9.87695C14.7327 9.16052 14.8172 8.41168 14.7803 7.65726C14.6955 5.92553 13.9763 4.28556 12.76 3.04996ZM11.122 7.48754L12.2305 6.16677L11.4646 5.52388L10.2996 6.91187L11.122 7.48754ZM9.62345 7.71743L6.99495 10.8491L4.1407 7.53744L3.38322 8.19029L6.62125 11.9473L7.38297 11.9423L9.62345 9.2729V7.71743Z" fill="#89D185"/>
<path fill-rule="evenodd" clip-rule="evenodd" d="M10.8267 8.75732V16L16 12.3787L10.8267 8.75732Z" fill="#C5C5C5"/>
</svg>
