<?xml version="1.0" encoding="utf-8"?>
<svg width="16" height="16" viewBox="0 0 16 16" fill="none" xmlns="http://www.w3.org/2000/svg">
<path fill-rule="evenodd" clip-rule="evenodd" d="M12.76 3.04995C11.6436 1.90518 10.1595 1.19039 8.56838 1.03128C6.97728 0.872168 5.38101 1.27892 4.06002 2.17996C2.72797 3.0868 1.7496 4.42537 1.29003 5.96988C0.829466 7.52042 0.910595 9.18166 1.52004 10.68C2.12677 12.1706 3.22861 13.4066 4.64003 14.18C6.04844 14.9369 7.67726 15.1772 9.24428 14.8594C9.37178 14.8335 9.49822 14.8041 9.62346 14.7712V13.7302C9.4324 13.7898 9.23771 13.8398 9.04006 13.8799C7.7058 14.1519 6.31834 13.9467 5.12001 13.3C4.2177 12.7997 3.45807 12.0773 2.91304 11.2013C2.36802 10.3253 2.05568 9.3246 2.0056 8.2941C1.95553 7.26359 2.16939 6.23738 2.62691 5.31265C3.08443 4.38792 3.77045 3.59531 4.62001 3.00992C5.74868 2.24247 7.11117 1.89613 8.46932 2.0314C9.82747 2.16667 11.0949 2.77492 12.05 3.74991C13.0928 4.81093 13.7097 6.21792 13.7834 7.70376C13.8096 8.23087 13.7667 8.75488 13.6589 9.2634L14.5354 9.87695C14.7327 9.16051 14.8173 8.41168 14.7803 7.65725C14.6955 5.92552 13.9763 4.28555 12.76 3.04995ZM11.122 7.48753L12.2305 6.16677L11.4646 5.52388L10.2996 6.91187L11.122 7.48753ZM9.62346 7.71742L6.99495 10.8491L4.1407 7.53743L3.38322 8.19029L6.62126 11.9473L7.38298 11.9423L9.62346 9.2729V7.71742Z" fill="#89D185"/>
<path fill-rule="evenodd" clip-rule="evenodd" d="M10.8267 8.75733V16L16 12.3787L10.8267 8.75733Z" fill="#C5C5C5"/>
</svg>
