<?xml version="1.0" encoding="utf-8"?>
<svg width="16" height="16" viewBox="0 0 16 16" fill="none" xmlns="http://www.w3.org/2000/svg">
<path opacity="0.5" fill-rule="evenodd" clip-rule="evenodd" d="M12.76 3.04993C11.6436 1.90515 10.1595 1.19036 8.56837 1.03125C6.97728 0.872144 5.38101 1.2789 4.06001 2.17993C2.72796 3.08678 1.74959 4.42534 1.29002 5.96985C0.829462 7.5204 0.910591 9.18164 1.52003 10.6799C2.12676 12.1706 3.2286 13.4066 4.64003 14.1799C6.04843 14.9369 7.67726 15.1772 9.24428 14.8594C9.36678 14.8345 9.4883 14.8064 9.60873 14.7751V13.7347C9.42239 13.7923 9.23263 13.8408 9.04005 13.8799C7.70579 14.1519 6.31833 13.9467 5.12001 13.2999C4.21769 12.7997 3.45806 12.0773 2.91304 11.2013C2.36802 10.3253 2.05567 9.32457 2.0056 8.29407C1.95553 7.26357 2.16938 6.23735 2.62691 5.31263C3.08443 4.3879 3.77044 3.59529 4.62001 3.00989C5.74868 2.24244 7.11116 1.89611 8.46931 2.03137C9.82747 2.16664 11.0949 2.77489 12.05 3.74988C13.0928 4.81091 13.7097 6.21789 13.7834 7.70374C13.8097 8.23385 13.7662 8.76084 13.6571 9.27209L14.5331 9.88531C14.732 9.16633 14.8174 8.4146 14.7803 7.65723C14.6955 5.9255 13.9763 4.28553 12.76 3.04993ZM11.9941 8.10804C11.998 8.07227 12 8.0362 12 7.99997C12 7.73476 11.8946 7.4804 11.7071 7.29287C11.5196 7.10533 11.2652 6.99997 11 6.99997C10.8462 6.99997 10.6951 7.03543 10.5582 7.10287L11.9941 8.10804ZM9 7.99997C9 8.19775 8.94135 8.39109 8.83147 8.55554C8.72159 8.71999 8.56541 8.84816 8.38268 8.92385C8.19995 8.99954 7.99889 9.01934 7.80491 8.98076C7.61093 8.94217 7.43274 8.84693 7.29289 8.70708C7.15304 8.56723 7.0578 8.38904 7.01921 8.19506C6.98063 8.00108 7.00043 7.80001 7.07612 7.61729C7.1518 7.43456 7.27998 7.27838 7.44443 7.1685C7.60888 7.05862 7.80222 6.99997 8 6.99997C8.26521 6.99997 8.51957 7.10533 8.7071 7.29287C8.89464 7.4804 9 7.73476 9 7.99997ZM6 7.99997C6 8.19775 5.94135 8.39109 5.83147 8.55554C5.72158 8.71999 5.56541 8.84816 5.38268 8.92385C5.19995 8.99954 4.99889 9.01934 4.80491 8.98076C4.61093 8.94217 4.43274 8.84693 4.29289 8.70708C4.15304 8.56723 4.0578 8.38904 4.01921 8.19506C3.98063 8.00108 4.00043 7.80001 4.07612 7.61729C4.1518 7.43456 4.27998 7.27838 4.44443 7.1685C4.60888 7.05862 4.80222 6.99997 5 6.99997C5.26521 6.99997 5.51957 7.10533 5.7071 7.29287C5.89464 7.4804 6 7.73476 6 7.99997Z" fill="#C5C5C5"/>
<path fill-rule="evenodd" clip-rule="evenodd" d="M10.8159 8.75671V15.9994L15.9892 12.3781L10.8159 8.75671Z" fill="#C5C5C5"/>
</svg>
