<?xml version="1.0" encoding="utf-8"?>
<svg width="16" height="16" viewBox="0 0 16 16" fill="none" xmlns="http://www.w3.org/2000/svg">
<path fill-rule="evenodd" clip-rule="evenodd" d="M12.76 3.04996C11.6436 1.90518 10.1595 1.19039 8.56838 1.03128C6.97729 0.872172 5.38101 1.27892 4.06002 2.17996C2.72797 3.08681 1.7496 4.42537 1.29003 5.96988C0.82947 7.52043 0.910599 9.18167 1.52004 10.68C2.12677 12.1706 3.22861 13.4066 4.64004 14.18C6.04844 14.9369 7.67727 15.1772 9.24429 14.8594C9.36679 14.8346 9.48831 14.8064 9.60873 14.7751V13.7347C9.4224 13.7923 9.23264 13.8409 9.04006 13.8799C7.7058 14.1519 6.31834 13.9467 5.12002 13.3C4.2177 12.7997 3.45807 12.0773 2.91305 11.2013C2.36803 10.3253 2.05568 9.3246 2.00561 8.2941C1.95553 7.26359 2.16939 6.23738 2.62691 5.31265C3.08444 4.38793 3.77045 3.59531 4.62002 3.00992C5.74869 2.24247 7.11117 1.89614 8.46932 2.0314C9.82747 2.16667 11.0949 2.77492 12.05 3.74991C13.0928 4.81093 13.7097 6.21792 13.7834 7.70377C13.8097 8.23388 13.7662 8.76087 13.6571 9.27212L14.5331 9.88534C14.732 9.16636 14.8174 8.41463 14.7803 7.65726C14.6955 5.92552 13.9763 4.28556 12.76 3.04996ZM11.9941 8.10807C11.998 8.0723 12 8.03622 12 8C12 7.73478 11.8946 7.48043 11.7071 7.29289C11.5196 7.10536 11.2652 7 11 7C10.8462 7 10.6951 7.03546 10.5582 7.1029L11.9941 8.10807ZM9.00001 8C9.00001 8.19778 8.94136 8.39112 8.83147 8.55557C8.72159 8.72002 8.56541 8.84819 8.38269 8.92388C8.19996 8.99957 7.9989 9.01937 7.80491 8.98079C7.61093 8.9422 7.43275 8.84696 7.2929 8.70711C7.15305 8.56726 7.05781 8.38907 7.01922 8.19509C6.98063 8.00111 7.00044 7.80004 7.07613 7.61732C7.15181 7.43459 7.27999 7.27841 7.44443 7.16853C7.60888 7.05865 7.80222 7 8.00001 7C8.26522 7 8.51958 7.10536 8.70711 7.29289C8.89465 7.48043 9.00001 7.73478 9.00001 8ZM6 8C6 8.19778 5.94136 8.39112 5.83147 8.55557C5.72159 8.72002 5.56541 8.84819 5.38269 8.92388C5.19996 8.99957 4.9989 9.01937 4.80491 8.98079C4.61093 8.9422 4.43275 8.84696 4.2929 8.70711C4.15305 8.56726 4.05781 8.38907 4.01922 8.19509C3.98063 8.00111 4.00044 7.80004 4.07613 7.61732C4.15181 7.43459 4.27999 7.27841 4.44443 7.16853C4.60888 7.05865 4.80222 7 5 7C5.26522 7 5.51958 7.10536 5.70711 7.29289C5.89465 7.48043 6 7.73478 6 8Z" fill="#C5C5C5" opacity="0.5"/>
<path fill-rule="evenodd" clip-rule="evenodd" d="M10.8158 8.75673V15.9994L15.9892 12.3781L10.8158 8.75673Z" fill="#C5C5C5"/>
</svg>
