<?xml version="1.0" encoding="utf-8"?>
<svg width="16" height="16" viewBox="0 0 16 16" fill="none" xmlns="http://www.w3.org/2000/svg">
<path opacity="0.5" fill-rule="evenodd" clip-rule="evenodd" d="M8.56838 1.03128C10.1595 1.19039 11.6436 1.90518 12.76 3.04996C13.9763 4.28555 14.6955 5.92552 14.7803 7.65726C14.8651 9.38899 14.3098 11.0913 13.2201 12.4398C12.2178 13.6857 10.8113 14.5416 9.24429 14.8594C7.67727 15.1772 6.04844 14.9369 4.64004 14.18C3.22861 13.4066 2.12677 12.1706 1.52004 10.68C0.910598 9.18166 0.829469 7.52043 1.29003 5.96988C1.7496 4.42537 2.72797 3.0868 4.06002 2.17996C5.38101 1.27892 6.97729 0.87217 8.56838 1.03128ZM9.04006 13.8799C10.3829 13.6075 11.5887 12.8756 12.45 11.81C13.3826 10.6509 13.8571 9.18961 13.7834 7.70376C13.7097 6.21792 13.0928 4.81093 12.05 3.74991C11.0949 2.77492 9.82747 2.16667 8.46932 2.0314C7.11117 1.89613 5.74869 2.24247 4.62002 3.00992C3.77045 3.59531 3.08444 4.38792 2.62691 5.31265C2.16939 6.23738 1.95553 7.26359 2.00561 8.2941C2.05568 9.3246 2.36803 10.3253 2.91305 11.2013C3.45807 12.0773 4.2177 12.7997 5.12002 13.3C6.31834 13.9467 7.7058 14.1519 9.04006 13.8799ZM5.83147 8.55557C5.94135 8.39112 6 8.19778 6 8C6 7.73478 5.89464 7.48043 5.70711 7.29289C5.51957 7.10536 5.26522 7 5 7C4.80222 7 4.60888 7.05865 4.44443 7.16853C4.27998 7.27841 4.15181 7.43459 4.07612 7.61732C4.00043 7.80004 3.98063 8.00111 4.01922 8.19509C4.0578 8.38907 4.15304 8.56725 4.29289 8.70711C4.43275 8.84696 4.61093 8.9422 4.80491 8.98078C4.99889 9.01937 5.19996 8.99957 5.38268 8.92388C5.56541 8.84819 5.72159 8.72002 5.83147 8.55557ZM9 8C9 8.19778 8.94135 8.39112 8.83147 8.55557C8.72159 8.72002 8.56541 8.84819 8.38268 8.92388C8.19996 8.99957 7.99889 9.01937 7.80491 8.98079C7.61093 8.9422 7.43275 8.84696 7.29289 8.70711C7.15304 8.56725 7.0578 8.38907 7.01922 8.19509C6.98063 8.00111 7.00043 7.80004 7.07612 7.61732C7.15181 7.43459 7.27998 7.27841 7.44443 7.16853C7.60888 7.05865 7.80222 7 8 7C8.26522 7 8.51957 7.10536 8.70711 7.29289C8.89464 7.48043 9 7.73478 9 8ZM11.8315 8.55557C11.9414 8.39112 12 8.19778 12 8C12 7.73478 11.8946 7.48043 11.7071 7.29289C11.5196 7.10536 11.2652 7 11 7C10.8022 7 10.6089 7.05865 10.4444 7.16853C10.28 7.27841 10.1518 7.43459 10.0761 7.61732C10.0004 7.80004 9.98063 8.00111 10.0192 8.19509C10.0578 8.38907 10.153 8.56725 10.2929 8.70711C10.4327 8.84696 10.6109 8.9422 10.8049 8.98079C10.9989 9.01937 11.2 8.99957 11.3827 8.92388C11.5654 8.84819 11.7216 8.72002 11.8315 8.55557Z" fill="#424242"/>
</svg>
