<?xml version="1.0" encoding="utf-8"?>
<svg width="16" height="16" viewBox="0 0 16 16" fill="none" xmlns="http://www.w3.org/2000/svg">
<path fill-rule="evenodd" clip-rule="evenodd" d="M8.57308 1.03128C10.1642 1.19039 11.6483 1.90518 12.7647 3.04996C12.8453 3.13186 12.9238 3.21553 13 3.3009L13 1L14 1L14 4.5L13.5 5L10 5L10 4L12.2871 4C12.2121 3.91468 12.1347 3.83128 12.0547 3.74991C11.0996 2.77492 9.83217 2.16667 8.47401 2.0314C7.11586 1.89613 5.75338 2.24247 4.62471 3.00992C3.77515 3.59531 3.08913 4.38792 2.63161 5.31265C2.17409 6.23738 1.96023 7.26359 2.0103 8.2941C2.06037 9.3246 2.37272 10.3253 2.91774 11.2013C3.46276 12.0773 4.22239 12.7997 5.12471 13.3C6.32304 13.9467 7.71049 14.1519 9.04475 13.8799C10.3876 13.6075 11.5934 12.8756 12.4547 11.81C13.2097 10.8717 13.6645 9.73535 13.7712 8.54826L14.7471 8.81065C14.5948 10.1324 14.0708 11.3928 13.2247 12.4398C12.2225 13.6857 10.816 14.5416 9.24898 14.8594C7.68196 15.1772 6.05313 14.9369 4.64473 14.18C3.23331 13.4066 2.13147 12.1706 1.52474 10.68C0.915292 9.18166 0.834163 7.52043 1.29472 5.96988C1.7543 4.42537 2.73267 3.0868 4.06471 2.17996C5.38571 1.27892 6.98198 0.872169 8.57308 1.03128ZM7.40236 8.20703L7.39949 8.2099L9.60976 10.4202L10.3169 9.71306L8.39672 7.79292L8.39672 4L7.39672 4L7.39672 8.20703L7.40236 8.20703Z" fill="#007ACC"/>
</svg>
