<?xml version="1.0" encoding="utf-8"?>
<svg width="16" height="16" viewBox="0 0 16 16" fill="none" xmlns="http://www.w3.org/2000/svg">
<path fill-rule="evenodd" clip-rule="evenodd" d="M2.49284 12.3239C1.52514 11.0906 0.999449 9.56812 1 8.00045C0.999902 6.46996 1.50141 4.98161 2.42773 3.76328C3.35406 2.54495 4.65415 1.66378 6.12895 1.25469C7.60376 0.845604 9.172 0.931139 10.5936 1.4982C12.0151 2.06526 13.2117 3.0826 14 4.39445V2.00045H15V5.50045L14.5 6.00045H11V5.00045H13.189C12.521 3.84546 11.4876 2.94567 10.2517 2.44298C9.01582 1.94028 7.64774 1.86329 6.36324 2.22413C5.07873 2.58498 3.95088 3.36313 3.15755 4.43587C2.36421 5.50862 1.95054 6.81493 1.98175 8.14879C2.01297 9.48265 2.48729 10.7682 3.32994 11.8026C4.17258 12.8371 5.33559 13.5616 6.63557 13.862C7.93555 14.1624 9.29853 14.0215 10.5096 13.4615C11.7206 12.9016 12.7108 11.9544 13.324 10.7695L14.211 11.2315C13.488 12.6224 12.3189 13.7304 10.8912 14.3779C9.46354 15.0254 7.85981 15.1749 6.33703 14.8025C4.81424 14.4301 3.46055 13.5573 2.49284 12.3239ZM10.146 11.3545L10.854 10.6465L8 7.79349V4.00049H7V8.00049L7.146 8.35449L10.146 11.3545Z" fill="#007ACC"/>
</svg>
