<?xml version="1.0" encoding="utf-8"?>
<svg width="16" height="16" viewBox="0 0 16 16" fill="none" xmlns="http://www.w3.org/2000/svg">
<path opacity="0.5" fill-rule="evenodd" clip-rule="evenodd" d="M2.92491 7.80163C3.28294 5.32412 5.41504 3.42062 7.99172 3.42062C9.91179 3.42062 11.585 4.4776 12.4612 6.04143H10V7.04143H13.5L14 6.54143V3.04143H13V5.02263C11.8926 3.44889 10.0623 2.42062 7.99172 2.42062C4.86192 2.42062 2.28087 4.77014 1.91614 7.80163H2.92491ZM8.00001 14C9.10458 14 10 13.1046 10 12C10 10.8954 9.10458 10 8.00001 10C6.89544 10 6.00001 10.8954 6.00001 12C6.00001 13.1046 6.89544 14 8.00001 14Z" fill="#424242"/>
</svg>
