<?xml version="1.0" encoding="utf-8"?>
<svg width="16" height="16" viewBox="0 0 16 16" fill="none" xmlns="http://www.w3.org/2000/svg">
<path fill-rule="evenodd" clip-rule="evenodd" d="M2.9249 7.80163C3.28293 5.32412 5.41503 3.42062 7.99171 3.42062C9.91178 3.42062 11.585 4.47759 12.4612 6.04143H10V7.04143H13.5L14 6.54143V3.04143H13V5.02262C11.8926 3.44889 10.0622 2.42062 7.99171 2.42062C4.86191 2.42062 2.28086 4.77014 1.91613 7.80163H2.9249ZM8 14C9.10457 14 10 13.1046 10 12C10 10.8954 9.10457 10 8 10C6.89543 10 6 10.8954 6 12C6 13.1046 6.89543 14 8 14Z" fill="#C5C5C5" opacity="0.5"/>
</svg>
